# xmcd
# 
# Track frame offsets:
#     150
#     24625
#     55288
#     74861
#     106683
#     133143
#     172423
#     198999
#     225990
#     267623
# 
# Disc length: 3900
# 
# Revision: 1
# Processed by: cddbd v1.5.2PL0 Copyright (c) Steve Scherf et al.
# Submitted via: BonkEnc v1.0.8
# 
DISCID=990f3a0a
DTITLE=Atomic [Fredrik Ljungkvist, Magnus Broo, Havard Wiik, Ingebrigt Haker Flaten, Paal Nilssen-Love] - Happy New Ears!
DYEAR=2005
DGENRE=Contemporary Jazz
TTITLE0=Roma
TTITLE1=St Lureplass
TTITLE2=Cosmatesco
TTITLE3=Two Boxes Left
TTITLE4=Soundtrack
TTITLE5=Poor Denmark
TTITLE6=ABC 101 B
TTITLE7=Sooner Or Later
TTITLE8=Crux
TTITLE9=Closing Stages
EXTD=YEAR: 2005
EXTT0=
EXTT1=
EXTT2=
EXTT3=
EXTT4=
EXTT5=
EXTT6=
EXTT7=
EXTT8=
EXTT9=
PLAYORDER=
